<svg width="124" height="145" viewBox="0 0 124 145" fill="none" xmlns="http://www.w3.org/2000/svg">
<path d="M112.654 46.1192C112.197 46.2494 111.707 46.1963 111.29 45.9713C110.252 45.4015 109.131 45.1093 108.235 44.3194C108.01 44.7522 107.778 45.1814 107.531 45.6034C106.28 47.7496 104.828 49.7695 103.624 51.9408C102.492 53.9751 99.3576 52.1536 100.49 50.1193C101.698 47.9552 103.149 45.9281 104.397 43.7856C105.645 41.643 106.091 39.4067 107.125 37.275C97.7577 25.5201 82.4553 17.8625 65.1613 17.8625C47.9434 17.8625 32.699 25.4587 23.321 37.1236C23.821 37.9507 24.1128 38.8857 24.1716 39.849C24.2303 40.8123 24.0543 41.7754 23.6584 42.6566C23.7447 43.4472 23.6392 44.2469 23.3507 44.9887C23.0623 45.7304 22.5993 46.3927 22.0004 46.92C21.801 47.1177 21.5557 47.2635 21.2862 47.3447C21.0167 47.4258 20.7312 47.4398 20.455 47.3853C20.2228 47.6486 19.987 47.9083 19.7548 48.1608C18.7426 49.2645 17.4874 48.691 16.9795 47.681C14.724 52.9479 13.5617 58.6135 13.562 64.3378C13.562 90.0084 36.6716 110.82 65.1794 110.82C93.6872 110.82 116.797 90.0084 116.797 64.3378C116.788 58.035 115.373 51.8126 112.654 46.1192Z" fill="#FCD34D" stroke="#111827" stroke-miterlimit="10"/>
<path d="M2 86.1706C2 86.1706 3.74501 93.1175 11.7336 65.575C11.7336 66.0728 15.7242 59.62 29.6988 57.6398C29.4521 58.6317 38.685 56.1501 38.4347 54.9093C38.685 55.6559 38.4347 59.3747 32.6954 61.6074C31.9481 62.1051 24.2098 63.8437 22.4648 65.575C20.7198 67.3063 13.4786 76.7565 15.7242 75.2524C16.4752 75.0035 8.48664 88.1544 7.98962 85.4239C7.98962 86.1706 3.49831 88.3997 2 86.1706Z" fill="#D97706" stroke="#111827" stroke-miterlimit="10"/>
<path d="M5.99072 99.8154C5.99072 99.8154 8.48671 103.538 17.473 78.9746C17.97 78.9746 22.2146 75.007 25.9586 73.7626C29.7025 72.5183 39.8062 68.3054 38.4965 65.326C38.6852 65.8238 39.6828 75.0034 34.9412 79.4688C35.1915 79.4688 23.2377 94.6179 22.3525 94.3582C22.9619 94.1093 18.7246 103.04 25.2076 116.689C25.4579 117.432 16.1742 109.915 15.7243 97.3339C16.225 97.3339 10.2353 102.795 5.99072 99.8154Z" fill="#D97706" stroke="#111827" stroke-miterlimit="10"/>
<path d="M3.99536 62.8446C3.99536 62.8446 5.9907 63.8401 12.2306 56.6442C12.2306 56.8895 14.226 53.9138 16.722 51.6811C16.722 52.4241 9.16872 54.3611 8.98732 57.2863C8.98732 57.3873 8.23998 51.93 16.722 48.2076C17.2226 48.4565 29.9492 46.9669 31.1972 48.2076C31.9481 48.4565 44.9251 45.9749 46.173 40.0199C46.6701 39.771 45.9771 50.48 38.7105 51.4575C38.9354 51.93 35.1915 55.1546 28.4509 54.9057C29.2018 55.4035 18.7209 56.6442 17.7232 57.1384C18.2203 57.1384 5.744 66.318 3.99536 62.8446Z" fill="#D97706" stroke="#111827" stroke-miterlimit="10"/>
<path d="M18.7354 44.734C18.7354 44.734 23.0888 42.7466 25.1603 42.9955C24.9717 43.7421 16.9867 30.5913 27.718 26.3712C27.9683 27.1178 31.0193 21.9058 38.7249 27.612C38.4492 28.3586 33.9579 27.3631 31.2116 28.6039C31.2116 29.1016 27.9937 30.8402 28.7302 32.824C28.7302 33.0729 25.7118 33.5634 31.7123 45.7259C31.9481 45.7259 20.4658 44.4852 18.7354 44.734Z" fill="#D97706" stroke="#111827" stroke-miterlimit="10"/>
<path d="M40.6804 34.0648C40.4793 33.2241 40.2298 32.3956 39.9331 31.5833C42.9261 30.8403 46.4197 35.0567 46.2964 35.3164C46.173 40.5393 37.1868 42.2526 37.4371 42.5015C38.1264 31.8322 30.4498 35.3164 30.4498 35.3164C30.4498 35.3164 36.1891 29.9169 40.6804 34.0648Z" fill="#D97706" stroke="#111827" stroke-miterlimit="10"/>
<path d="M40.1833 131.08C40.1833 131.08 28.7011 107.275 26.4554 107.754C26.9561 107.754 21.2422 97.5829 28.7156 90.1382C29.2017 90.1382 42.1787 79.4689 41.4313 77.4851C41.4313 77.734 38.685 89.8929 34.941 95.5991C35.1914 95.5991 32.4995 105.273 38.7104 113.215C38.9353 113.215 33.1924 115.199 30.4497 97.3449C30.7001 97.5937 27.2826 99.289 30.4497 108.761" fill="#D97706"/>
<path d="M40.1833 131.08C40.1833 131.08 28.7011 107.275 26.4554 107.754C26.9561 107.754 21.2422 97.5829 28.7156 90.1382C29.2017 90.1382 42.1787 79.4689 41.4313 77.4851C41.4313 77.734 38.685 89.8929 34.941 95.5991C35.1914 95.5991 32.4995 105.273 38.7104 113.215C38.9353 113.215 33.1924 115.199 30.4497 97.3449C30.7001 97.5937 27.2826 99.289 30.4497 108.761" stroke="#111827" stroke-miterlimit="10"/>
<path d="M31.6978 22.6489C31.6978 22.6489 47.4211 25.1305 54.6551 41.2606C54.6551 41.5059 62.6364 42.5014 65.6366 45.726C65.6366 46.2202 71.8766 40.2579 77.8662 40.0162C78.1165 40.514 83.8558 24.8852 96.3321 28.1134C96.3321 27.3667 104.818 29.603 103.82 38.7827C104.07 39.5257 99.8294 50.6855 91.3438 44.24C91.8408 45.7296 83.8558 40.0451 83.1049 35.32C83.1049 35.8034 80.6125 43.2553 82.1072 44.4888C82.3575 44.9866 90.3425 54.4151 89.3448 55.9012C89.5951 56.3989 86.8488 52.6766 86.6021 54.9093C87.0992 55.407 87.8465 67.0682 90.8431 68.5579C91.0935 69.3009 108.812 81.954 109.309 88.1579C109.81 88.6557 115.549 98.3294 106.316 112.721C106.566 112.721 121.789 98.0301 117.047 87.1408C112.306 76.2514 101.81 73.5174 101.81 73.5174C101.81 73.5174 90.0813 67.3171 92.0766 54.9093C92.0766 54.9093 97.8159 62.6822 103.305 63.6344C103.806 63.8436 120.026 70.2423 122.533 87.1408C122.533 86.9171 125.279 68.309 116.293 61.3621C116.046 61.3621 123.824 64.1718 122.928 63.6344C122.533 63.3459 123.291 46.4727 105.565 42.505C105.812 42.9992 107.811 28.6075 110.553 28.6075C110.056 29.1053 107.56 26.8726 107.56 26.8726L109.556 24.9104C109.556 24.9104 101.088 23.4424 101.088 24.9177C101.088 26.3929 103.584 21.6714 103.584 21.6714C103.584 21.6714 90.1103 22.9591 89.6096 24.9177C89.109 26.8762 93.6003 17.2024 95.349 18.6921C97.0976 20.1818 87.6143 17.1375 86.6166 18.5334C85.619 19.9293 88.8623 10.7532 87.364 10.7532C87.364 10.5044 83.1194 15.9616 82.6224 14.472C83.1194 14.7209 75.6351 16.9536 75.6351 18.1943C75.8854 17.4513 76.8504 13.729 77.3656 12.2393L73.6361 14.2267C73.6361 14.2267 73.8864 -0.164927 70.8934 1.07586C70.8934 1.57 54.1725 9.26359 54.1725 16.7083C54.4229 17.2024 40.7494 9.75773 41.475 11.7451C41.943 12.2393 44.1886 18.6921 44.1886 18.6921L49.1806 23.1575C49.1806 23.1575 35.9533 15.7128 35.9533 18.1943C36.454 18.1943 40.4447 22.162 40.4447 22.162C40.4447 22.162 31.1972 18.9301 31.6978 22.6489Z" fill="#D97706" stroke="#111827" stroke-miterlimit="10"/>
<path d="M92.8384 42.5014C92.8384 42.5014 93.7744 31.5941 100.076 35.3164C100.577 35.7997 103.073 30.5913 90.3424 33.0729C90.5928 33.0729 92.0911 31.4967 92.0911 31.4967C92.0911 31.4967 85.3541 30.007 86.3518 36.9972C86.6021 37.7871 92.6135 44.0343 92.8384 42.5014Z" fill="#D97706" stroke="#111827" stroke-miterlimit="10"/>
<path d="M43.1764 56.8534C43.1764 56.8534 40.1834 64.0672 45.1717 65.3261C44.925 65.3261 43.9273 71.2558 46.2963 71.0214C45.6723 71.2811 48.4187 74.5093 47.421 75.7465C47.1707 75.7465 39.4396 66.0727 40.4301 65.3261C40.1834 66.0727 40.1834 56.8137 43.1764 56.8534Z" fill="#D97706" stroke="#111827" stroke-miterlimit="10"/>
<path d="M48.9157 75.7466C48.9157 75.7466 43.0422 83.1408 43.9854 87.1373C44.1741 88.1544 39.9947 88.8975 40.3321 101.056C40.4301 101.554 43.5573 89.9435 44.613 91.0328C44.6747 91.1301 37.8797 108.75 47.6387 121.652C47.8963 121.194 42.5089 104.598 52.6488 94.6C53.5834 93.6807 54.6052 92.8533 55.6998 92.1293C55.6563 92.1293 77.8661 83.1949 75.8708 98.7047C76.3678 99.0654 75.6205 96.5947 72.8742 96.0969C74.3725 97.3377 71.8765 102.301 71.3759 102.55C71.8765 102.55 71.3759 99.0762 70.1279 98.7047C70.8788 99.0654 66.1372 104.534 65.3862 104.285C65.3862 104.534 59.8973 99.8193 61.3956 98.7047C61.3956 99.0654 57.4267 101.558 58.1631 101.803C58.399 102.052 57.1764 99.3251 58.1631 97.0888C57.9019 97.8354 56.4907 94.8561 55.6998 98.7047C56.1533 98.8273 51.9123 96.3458 53.9077 95.6027C53.6573 96.0969 46.9204 103.79 48.6654 110.24C49.6667 110.737 49.2531 116.444 55.6998 127.611C56.1533 128.105 61.2323 130.835 55.6998 143.986C55.903 144.231 62.0232 141.256 62.5928 133.811C62.4041 133.811 60.6809 123.888 58.174 118.662C58.4098 118.911 54.1834 108.505 58.174 109.861C58.4098 110.972 57.6625 115.931 61.1561 120.4C61.6568 120.895 67.6428 125.115 63.9024 136.776C63.6521 136.776 75.0799 130.074 77.351 121.143C77.3764 121.143 81.8677 110.489 81.1203 109.861C81.3707 109.233 82.118 121.143 78.374 126.092C78.374 126.341 68.9416 140.978 67.6428 137.995C67.8931 137.995 82.1543 133.775 86.261 123.106C86.6238 123.852 93.6002 107.722 88.1076 93.334C87.8573 93.8281 85.4121 81.175 86.261 82.4158C85.862 82.91 91.779 94.077 93.437 93.334C93.8469 94.077 102.082 104.746 91.3546 120.873C91.6013 121.62 111.565 108.97 105.079 94.3259C105.579 94.82 106.505 93.5793 93.437 81.175C93.3499 81.6692 90.1538 80.1831 86.261 67.5264C86.6238 67.7753 84.8643 70.9891 84.8643 70.9891H83.366C83.366 70.9891 83.8666 77.9504 82.3683 75.7141C80.87 73.4778 77.351 70.9891 77.351 70.9891C77.351 70.9891 77.6267 67.7428 75.381 66.2676C75.8817 66.5345 74.3108 78.1957 73.3494 75.7141C73.6324 75.7141 73.3494 74.2281 73.3494 74.2281L65.6474 75.7141L57.9165 74.2605L57.1655 75.7466C57.1655 75.7466 54.7602 72.2479 55.7143 71.0215C55.4205 71.0215 51.9268 76.4932 58.6638 78.7259C58.9141 78.9748 59.1644 77.4851 59.1644 77.4851H60.6591L60.4124 78.7259V80.2156C60.4124 80.2156 67.3997 85.424 60.1621 88.1508C60.1621 88.1508 54.9198 91.1265 53.4215 89.8894C54.1725 90.6324 52.9245 88.3997 52.9245 88.3997L55.7143 88.1508L51.9268 87.1337L50.4503 84.6773C50.4503 84.6773 56.9188 86.4123 57.4158 85.4204C57.4158 85.1715 50.9727 84.6773 50.4503 83.1877C50.6788 83.4366 50.4503 81.9469 50.4503 81.9469C50.4503 81.9469 58.6638 84.9262 58.9141 83.4366C59.1644 83.9343 49.4308 80.4572 49.4308 79.7142C49.6812 79.7142 50.4503 78.4734 50.4503 78.4734C50.4503 78.4734 54.869 83.1877 55.7143 80.4572C55.6563 80.7097 47.6677 75.9955 48.9157 75.7466Z" fill="#D97706" stroke="#111827" stroke-miterlimit="10"/>
<path d="M74.4341 79.9666H81.1094C81.1094 79.9666 72.1268 85.175 71.3758 82.9423C71.3758 83.44 81.1094 82.9423 81.1094 81.4562C81.3597 81.4562 79.6582 83.5014 79.6582 83.5014C79.6582 83.5014 73.4691 86.9351 73.353 85.175C74.1366 85.175 79.4405 84.688 79.6582 85.6763C79.8759 85.4238 79.6582 87.1371 79.6582 87.1371C79.6582 87.1371 75.5442 89.0957 74.4486 87.1371C74.1366 87.6565 76.8829 88.652 78.3776 89.1462C78.3776 88.8973 76.2698 91.0326 76.2698 91.0326L67.8967 87.1371C68.3974 88.1543 65.4008 82.697 69.1447 80.2154C69.395 80.2154 70.643 75.7465 71.3903 77.485C71.1436 77.7339 71.6407 78.9747 71.6407 78.9747C71.6407 78.9747 77.1296 76.8754 76.1319 73.7627C76.3823 74.2604 76.1972 72.5219 79.6582 75.7465C79.6256 75.5012 82.1723 76.9873 81.1493 77.485C80.1262 77.9828 74.4341 79.9666 74.4341 79.9666Z" fill="#D97706" stroke="#111827" stroke-miterlimit="10"/>
<path d="M55.8412 80.4644H49.166C49.166 80.4644 58.1485 85.6764 58.8995 83.4437C58.8995 83.9415 49.166 83.4437 49.166 81.9541C48.9157 81.9541 50.6171 83.9992 50.6171 83.9992C50.6171 83.9992 56.8062 87.433 56.9223 85.6764C56.1387 85.6764 50.8348 85.1895 50.6171 86.1778C50.3994 85.9253 50.6171 87.6206 50.6171 87.6206C50.6171 87.6206 54.7311 89.5827 55.8267 87.6206C56.1387 88.1436 53.3924 89.1355 51.8977 89.6332C51.8977 89.3844 54.0055 91.5196 54.0055 91.5196L62.3786 87.6206C61.878 88.6413 64.8746 83.1804 61.1306 80.6989C60.8803 80.6989 59.6323 76.2335 58.885 77.972C59.1353 78.2173 58.6347 79.4581 58.6347 79.4581C58.6347 79.4581 53.1457 77.3625 54.1434 74.2497C53.8931 74.7438 54.0817 73.0089 50.6171 76.2335C50.6498 75.9846 48.103 77.4743 49.1261 77.972C50.1491 78.4698 55.8412 80.4644 55.8412 80.4644Z" fill="#D97706" stroke="#111827" stroke-miterlimit="10"/>
<path d="M52.1844 55.9842C53.1502 55.9842 53.9331 55.2058 53.9331 54.2456C53.9331 53.2855 53.1502 52.5071 52.1844 52.5071C51.2187 52.5071 50.4358 53.2855 50.4358 54.2456C50.4358 55.2058 51.2187 55.9842 52.1844 55.9842Z" fill="#4D7C0F" stroke="#111827" stroke-miterlimit="10"/>
<path d="M78.3631 55.9842C79.3289 55.9842 80.1118 55.2058 80.1118 54.2456C80.1118 53.2855 79.3289 52.5071 78.3631 52.5071C77.3974 52.5071 76.6145 53.2855 76.6145 54.2456C76.6145 55.2058 77.3974 55.9842 78.3631 55.9842Z" fill="#4D7C0F" stroke="#111827" stroke-miterlimit="10"/>
<path d="M45.1718 51.8218C45.1718 51.8218 52.1627 51.9661 54.158 51.8218C52.91 52.673 57.151 50.6892 55.1557 60.8607C54.9053 60.8607 54.7022 55.3277 50.4394 56.8534C50.414 56.8895 46.9204 54.8913 45.1718 51.8218Z" fill="#E5E7EB" stroke="#111827" stroke-miterlimit="10"/>
<path d="M75.12 59.371C75.12 59.371 76.5711 57.1419 82.3575 54.9056C82.3575 54.6567 84.3166 54.9056 84.8535 51.8217C84.3528 51.681 80.6125 51.2193 76.1176 51.8217C76.1176 52.1752 73.1247 55.4034 75.12 59.371Z" fill="#E5E7EB" stroke="#111827" stroke-miterlimit="10"/>
<path d="M35.4346 30.6455L33.149 24.9069L18.7209 44.7342L48.8976 88.598L35.4346 30.6455Z" stroke="#111827" stroke-miterlimit="10"/>
<path d="M96.147 31.4498L99.6334 22.1223L110.274 44.02L84.4725 87.1372" stroke="#111827" stroke-miterlimit="10"/>
<path d="M35.4236 30.6455C35.4236 30.6455 31.0702 93.4962 65.8978 97.6875C66.1046 98.1167 100.17 96.8795 96.1506 31.4462C96.459 32.0882 71.9854 21.3865 35.4236 30.6455Z" fill="white" stroke="#111827" stroke-miterlimit="10"/>
<path d="M43.4921 54.4295C43.4921 54.4295 49.8118 45.1057 62.357 54.6532C62.4549 54.8552 53.0842 63.2773 43.4921 54.4295Z" fill="#DC2626" stroke="#111827" stroke-miterlimit="10"/>
<path d="M67.7118 54.2132C67.7118 54.2132 78.7224 46.8623 87.5563 54.7542C87.6398 54.9706 78.4177 63.8329 67.7118 54.2132Z" fill="#DC2626" stroke="#111827" stroke-miterlimit="10"/>
<path d="M49.5724 71.447C49.5724 71.447 63.4526 88.1615 82.176 72.6626C81.835 73.6112 67.3816 105.666 49.5724 71.447Z" fill="#DC2626" stroke="#111827" stroke-miterlimit="10"/>
</svg>
